# xmcd
# 
# Track frame offsets:
#     150
#     19089
#     51038
#     82836
#     102808
#     118809
#     149172
# 
# Disc length: 2300
# 
# Revision: 1
# Processed by: cddbd v1.5.2PL0 Copyright (c) Steve Scherf et al.
# Submitted via: BonkEnc v1.0.8
# 
DISCID=5808fa07
DTITLE=Colin Wilkie and Shirley Hart - Wild Goose
DYEAR=1969
DGENRE=Jazz
TTITLE0=Icy Acres
TTITLE1=Fourth Flight (based on Wild Goose Shanty)
TTITLE2=Snowy Sunday
TTITLE3=Willow and Rue
TTITLE4=Lament
TTITLE5=Ich armes Maidlein klag mich sehr (based on 14th Century German Folk Song)
TTITLE6=Sweet Primroses
EXTD=YEAR: 1969
EXTT0=
EXTT1=
EXTT2=
EXTT3=
EXTT4=
EXTT5=
EXTT6=
PLAYORDER=
